<svg width="185" height="257" viewBox="0 0 185 257" fill="none" xmlns="http://www.w3.org/2000/svg">
<g opacity="0.2" filter="url(#filter0_f_2010_1215)">
<ellipse cx="92.5" cy="250" rx="88.5" ry="3" fill="#616161"/>
</g>
<path d="M41 52C41 23.2812 64.2812 0 93 0V0C121.719 0 145 23.2812 145 52V244H41V52Z" fill="url(#paint0_radial_2010_1215)"/>
<g style="mix-blend-mode:color-burn">
<path d="M109 28H77C68.1634 28 61 35.1634 61 44V138C61 155.673 75.3269 170 93 170C110.673 170 125 155.673 125 138V44C125 35.1634 117.837 28 109 28Z" fill="#272361"/>
<path d="M109 28H77C68.1634 28 61 35.1634 61 44V138C61 155.673 75.3269 170 93 170C110.673 170 125 155.673 125 138V44C125 35.1634 117.837 28 109 28Z" stroke="white" stroke-width="4"/>
</g>
<rect x="28" y="242" width="131" height="8" fill="#272361"/>
<path fill-rule="evenodd" clip-rule="evenodd" d="M85.71 98.625L94.5131 83.3774V98.625H85.71ZM99.3946 98.638L90.5914 113.886V98.638H99.3946Z" fill="white"/>
<path d="M92.7108 216.157C92.7108 216.853 92.3471 217.2 91.6206 217.2C91.2679 217.2 90.9871 217.112 90.779 216.935C90.5709 216.759 90.4678 216.499 90.4678 216.156V209.505C90.4678 208.343 90.7735 207.468 91.3867 206.881C91.999 206.295 93.0276 206.001 94.4713 206.001C95.5404 206.001 96.3792 206.286 96.9869 206.858C97.5947 207.429 97.8985 208.348 97.8985 209.615C97.8985 210.716 97.6103 211.557 97.0339 212.139C96.4575 212.721 95.6444 213.011 94.5957 213.011C94.0036 213.011 93.5754 213.055 93.3102 213.144C93.046 213.232 92.8793 213.393 92.8121 213.626C92.7449 213.86 92.7108 214.2 92.7108 214.646V216.157ZM92.5708 211.656C92.6952 211.551 92.8149 211.461 92.929 211.383C93.0432 211.305 93.1961 211.243 93.3885 211.196C93.5809 211.149 93.8378 211.126 94.1592 211.126C94.6058 211.126 94.9584 211.087 95.2181 211.009C95.4778 210.931 95.6619 210.784 95.7715 210.565C95.8801 210.347 95.9354 210.03 95.9354 209.615C95.9354 209.064 95.87 208.662 95.7411 208.408C95.6113 208.154 95.4299 207.987 95.196 207.91C94.9621 207.831 94.6794 207.793 94.347 207.793C93.7448 207.793 93.3213 207.901 93.0773 208.12C92.8333 208.338 92.7117 208.717 92.7117 209.257C92.7117 209.641 92.7016 210.062 92.6804 210.518C92.6592 210.975 92.6233 211.354 92.5718 211.656H92.5708Z" fill="#FBFBFB"/>
<path d="M99.8657 217.2C99.0969 217.2 98.7129 216.852 98.7129 216.157V207.044C98.7129 206.68 98.8013 206.416 98.9781 206.25C99.1549 206.084 99.4348 206 99.8197 206C100.577 206 100.957 206.348 100.957 207.043V216.155C100.957 216.508 100.871 216.77 100.7 216.942C100.529 217.113 100.251 217.199 99.8666 217.199L99.8657 217.2Z" fill="#FBFBFB"/>
<path d="M104.213 216.157C104.213 216.853 103.849 217.2 103.123 217.2C102.77 217.2 102.489 217.112 102.281 216.935C102.073 216.758 101.97 216.499 101.97 216.156V210.035C101.97 209.059 102.1 208.277 102.359 207.691C102.619 207.104 103.044 206.676 103.636 206.405C104.228 206.135 105.018 206 106.004 206C107.312 206 108.301 206.304 108.971 206.912C109.641 207.519 109.976 208.56 109.976 210.035V216.156C109.976 216.852 109.612 217.2 108.886 217.2C108.533 217.2 108.252 217.111 108.044 216.934C107.836 216.758 107.733 216.498 107.733 216.155V210.035C107.733 209.267 107.6 208.719 107.336 208.391C107.072 208.064 106.627 207.901 106.005 207.901C105.517 207.901 105.143 207.973 104.883 208.119C104.623 208.264 104.447 208.493 104.354 208.804C104.26 209.115 104.214 209.526 104.214 210.034V216.155L104.213 216.157Z" fill="#FBFBFB"/>
<path d="M90.5615 220.581V219.498H90.9886C91.0707 219.498 91.1406 219.514 91.1984 219.545C91.2562 219.576 91.3002 219.62 91.3305 219.675C91.3612 219.73 91.3765 219.793 91.3765 219.865C91.3765 219.937 91.361 220 91.33 220.055C91.299 220.11 91.2541 220.153 91.1952 220.184C91.1367 220.215 91.0659 220.23 90.9828 220.23H90.7106V220.046H90.9458C90.9898 220.046 91.0261 220.039 91.0546 220.024C91.0835 220.008 91.105 219.987 91.1191 219.96C91.1336 219.932 91.1408 219.901 91.1408 219.865C91.1408 219.829 91.1336 219.798 91.1191 219.771C91.105 219.744 91.0835 219.723 91.0546 219.708C91.0257 219.693 90.9891 219.685 90.9447 219.685H90.7904V220.581H90.5615Z" fill="#FBFBFB"/>
<path d="M91.8652 219.498V220.581H91.64V219.498H91.8652Z" fill="#FBFBFB"/>
<path d="M92.6852 220.235V219.769H92.9103V220.581H92.6942V220.433H92.6857C92.6674 220.481 92.6369 220.519 92.5943 220.548C92.552 220.577 92.5004 220.591 92.4394 220.591C92.3852 220.591 92.3374 220.579 92.2962 220.554C92.255 220.53 92.2227 220.495 92.1995 220.449C92.1766 220.404 92.1649 220.349 92.1646 220.286V219.769H92.3897V220.246C92.3901 220.294 92.403 220.332 92.4283 220.359C92.4537 220.387 92.4877 220.401 92.5303 220.401C92.5575 220.401 92.5828 220.395 92.6064 220.383C92.63 220.37 92.6491 220.351 92.6635 220.327C92.6783 220.302 92.6855 220.271 92.6852 220.235Z" fill="#FBFBFB"/>
<path d="M93.5753 220.902C93.5023 220.902 93.4398 220.892 93.3876 220.872C93.3358 220.852 93.2946 220.825 93.2639 220.791C93.2333 220.757 93.2134 220.719 93.2042 220.676L93.4125 220.648C93.4188 220.664 93.4288 220.679 93.4426 220.693C93.4563 220.707 93.4745 220.719 93.497 220.727C93.5199 220.736 93.5478 220.74 93.5805 220.74C93.6295 220.74 93.6699 220.728 93.7016 220.704C93.7336 220.681 93.7497 220.641 93.7497 220.586V220.437H93.7402C93.7303 220.46 93.7155 220.481 93.6958 220.501C93.676 220.521 93.6507 220.537 93.6196 220.55C93.5886 220.563 93.5516 220.569 93.5087 220.569C93.4477 220.569 93.3922 220.555 93.3422 220.527C93.2925 220.498 93.2528 220.455 93.2232 220.396C93.194 220.337 93.1794 220.263 93.1794 220.173C93.1794 220.081 93.1944 220.005 93.2243 219.943C93.2543 219.881 93.2941 219.835 93.3438 219.804C93.3938 219.774 93.4486 219.758 93.5081 219.758C93.5536 219.758 93.5916 219.766 93.6223 219.782C93.6529 219.797 93.6776 219.816 93.6963 219.839C93.7153 219.861 93.7299 219.883 93.7402 219.905H93.7486V219.769H93.9722V220.589C93.9722 220.658 93.9553 220.716 93.9214 220.762C93.8876 220.809 93.8407 220.843 93.7808 220.867C93.7213 220.89 93.6528 220.902 93.5753 220.902ZM93.58 220.4C93.6163 220.4 93.647 220.391 93.672 220.373C93.6973 220.355 93.7167 220.329 93.7301 220.295C93.7439 220.261 93.7507 220.22 93.7507 220.172C93.7507 220.125 93.744 220.083 93.7306 220.049C93.7172 220.013 93.6979 219.986 93.6725 219.967C93.6471 219.947 93.6163 219.938 93.58 219.938C93.543 219.938 93.5118 219.948 93.4865 219.968C93.4611 219.987 93.4419 220.015 93.4288 220.05C93.4158 220.085 93.4093 220.126 93.4093 220.172C93.4093 220.219 93.4158 220.26 93.4288 220.294C93.4422 220.328 93.4614 220.354 93.4865 220.373C93.5118 220.391 93.543 220.4 93.58 220.4Z" fill="#FBFBFB"/>
<path d="M94.6362 220.902C94.5632 220.902 94.5007 220.892 94.4485 220.872C94.3967 220.852 94.3555 220.825 94.3249 220.791C94.2942 220.757 94.2743 220.719 94.2651 220.676L94.4734 220.648C94.4797 220.664 94.4898 220.679 94.5035 220.693C94.5172 220.707 94.5354 220.719 94.5579 220.727C94.5808 220.736 94.6087 220.74 94.6414 220.74C94.6904 220.74 94.7308 220.728 94.7625 220.704C94.7945 220.681 94.8106 220.641 94.8106 220.586V220.437H94.8011C94.7912 220.46 94.7764 220.481 94.7567 220.501C94.7369 220.521 94.7116 220.537 94.6806 220.55C94.6495 220.563 94.6126 220.569 94.5696 220.569C94.5086 220.569 94.4531 220.555 94.4031 220.527C94.3534 220.498 94.3138 220.455 94.2842 220.396C94.2549 220.337 94.2403 220.263 94.2403 220.173C94.2403 220.081 94.2553 220.005 94.2852 219.943C94.3152 219.881 94.355 219.835 94.4047 219.804C94.4547 219.774 94.5095 219.758 94.569 219.758C94.6145 219.758 94.6525 219.766 94.6832 219.782C94.7139 219.797 94.7385 219.816 94.7572 219.839C94.7762 219.861 94.7908 219.883 94.8011 219.905H94.8095V219.769H95.0331V220.589C95.0331 220.658 95.0162 220.716 94.9823 220.762C94.9485 220.809 94.9017 220.843 94.8418 220.867C94.7822 220.89 94.7137 220.902 94.6362 220.902ZM94.6409 220.4C94.6772 220.4 94.7079 220.391 94.7329 220.373C94.7583 220.355 94.7776 220.329 94.791 220.295C94.8048 220.261 94.8116 220.22 94.8116 220.172C94.8116 220.125 94.8049 220.083 94.7915 220.049C94.7782 220.013 94.7588 219.986 94.7334 219.967C94.708 219.947 94.6772 219.938 94.6409 219.938C94.6039 219.938 94.5727 219.948 94.5474 219.968C94.522 219.987 94.5028 220.015 94.4898 220.05C94.4767 220.085 94.4702 220.126 94.4702 220.172C94.4702 220.219 94.4767 220.26 94.4898 220.294C94.5031 220.328 94.5223 220.354 94.5474 220.373C94.5727 220.391 94.6039 220.4 94.6409 220.4Z" fill="#FBFBFB"/>
<path d="M95.3313 220.581V219.769H95.5565V220.581H95.3313ZM95.4444 219.664C95.411 219.664 95.3822 219.653 95.3583 219.631C95.3347 219.608 95.3229 219.582 95.3229 219.55C95.3229 219.519 95.3347 219.493 95.3583 219.47C95.3822 219.448 95.411 219.437 95.4444 219.437C95.4779 219.437 95.5064 219.448 95.5301 219.47C95.554 219.493 95.566 219.519 95.566 219.55C95.566 219.582 95.554 219.608 95.5301 219.631C95.5064 219.653 95.4779 219.664 95.4444 219.664Z" fill="#FBFBFB"/>
<path d="M96.0811 220.111V220.581H95.8559V219.769H96.0705V219.912H96.08C96.098 219.865 96.1281 219.828 96.1704 219.8C96.2127 219.772 96.2639 219.758 96.3242 219.758C96.3806 219.758 96.4297 219.771 96.4716 219.795C96.5136 219.82 96.5462 219.855 96.5694 219.901C96.5927 219.947 96.6043 220.001 96.6043 220.064V220.581H96.3792V220.104C96.3795 220.054 96.3668 220.016 96.3411 219.988C96.3154 219.96 96.28 219.945 96.2349 219.945C96.2046 219.945 96.1778 219.952 96.1545 219.965C96.1316 219.978 96.1137 219.997 96.1006 220.022C96.0879 220.047 96.0814 220.077 96.0811 220.111Z" fill="#FBFBFB"/>
<path d="M97.2666 220.902C97.1936 220.902 97.1311 220.892 97.0789 220.872C97.0271 220.852 96.9859 220.825 96.9553 220.791C96.9246 220.757 96.9047 220.719 96.8955 220.676L97.1038 220.648C97.1101 220.664 97.1202 220.679 97.1339 220.693C97.1477 220.707 97.1658 220.719 97.1883 220.727C97.2113 220.736 97.2391 220.74 97.2719 220.74C97.3208 220.74 97.3612 220.728 97.3929 220.704C97.425 220.681 97.441 220.641 97.441 220.586V220.437H97.4315C97.4216 220.46 97.4068 220.481 97.3871 220.501C97.3673 220.521 97.342 220.537 97.311 220.55C97.28 220.563 97.243 220.569 97.2 220.569C97.139 220.569 97.0835 220.555 97.0335 220.527C96.9838 220.498 96.9442 220.455 96.9146 220.396C96.8853 220.337 96.8707 220.263 96.8707 220.173C96.8707 220.081 96.8857 220.005 96.9156 219.943C96.9456 219.881 96.9854 219.835 97.0351 219.804C97.0851 219.774 97.1399 219.758 97.1994 219.758C97.2449 219.758 97.283 219.766 97.3136 219.782C97.3443 219.797 97.3689 219.816 97.3876 219.839C97.4066 219.861 97.4213 219.883 97.4315 219.905H97.4399V219.769H97.6635V220.589C97.6635 220.658 97.6466 220.716 97.6128 220.762C97.5789 220.809 97.5321 220.843 97.4722 220.867C97.4126 220.89 97.3441 220.902 97.2666 220.902ZM97.2713 220.4C97.3076 220.4 97.3383 220.391 97.3633 220.373C97.3887 220.355 97.408 220.329 97.4214 220.295C97.4352 220.261 97.442 220.22 97.442 220.172C97.442 220.125 97.4353 220.083 97.422 220.049C97.4086 220.013 97.3892 219.986 97.3638 219.967C97.3385 219.947 97.3076 219.938 97.2713 219.938C97.2343 219.938 97.2031 219.948 97.1778 219.968C97.1524 219.987 97.1332 220.015 97.1202 220.05C97.1071 220.085 97.1006 220.126 97.1006 220.172C97.1006 220.219 97.1071 220.26 97.1202 220.294C97.1336 220.328 97.1528 220.354 97.1778 220.373C97.2031 220.391 97.2343 220.4 97.2713 220.4Z" fill="#FBFBFB"/>
<path d="M98.4253 220.581V219.769H98.6504V220.581H98.4253ZM98.5384 219.664C98.5049 219.664 98.4762 219.653 98.4522 219.631C98.4286 219.608 98.4168 219.582 98.4168 219.55C98.4168 219.519 98.4286 219.493 98.4522 219.47C98.4762 219.448 98.5049 219.437 98.5384 219.437C98.5719 219.437 98.6004 219.448 98.624 219.47C98.648 219.493 98.6599 219.519 98.6599 219.55C98.6599 219.582 98.648 219.608 98.624 219.631C98.6004 219.653 98.5719 219.664 98.5384 219.664Z" fill="#FBFBFB"/>
<path d="M99.175 220.111V220.581H98.9499V219.769H99.1644V219.912H99.174C99.1919 219.865 99.222 219.828 99.2643 219.8C99.3066 219.772 99.3579 219.758 99.4181 219.758C99.4745 219.758 99.5237 219.771 99.5656 219.795C99.6075 219.82 99.6401 219.855 99.6634 219.901C99.6866 219.947 99.6983 220.001 99.6983 220.064V220.581H99.4731V220.104C99.4735 220.054 99.4608 220.016 99.435 219.988C99.4093 219.96 99.3739 219.945 99.3288 219.945C99.2985 219.945 99.2717 219.952 99.2485 219.965C99.2256 219.978 99.2076 219.997 99.1946 220.022C99.1819 220.047 99.1754 220.077 99.175 220.111Z" fill="#FBFBFB"/>
<path d="M100.463 220.581V219.498H101.192V219.687H100.691V219.945H101.154V220.134H100.691V220.392H101.194V220.581H100.463Z" fill="#FBFBFB"/>
<path d="M101.688 219.498L101.95 220.321H101.96L102.222 219.498H102.476L102.103 220.581H101.808L101.434 219.498H101.688Z" fill="#FBFBFB"/>
<path d="M104.094 219.498V220.581H103.897L103.426 219.9H103.418V220.581H103.189V219.498H103.39L103.857 220.179H103.866V219.498H104.094Z" fill="#FBFBFB"/>
<path d="M104.768 220.597C104.685 220.597 104.613 220.58 104.553 220.546C104.493 220.512 104.446 220.463 104.414 220.401C104.382 220.338 104.365 220.264 104.365 220.179C104.365 220.095 104.382 220.022 104.414 219.959C104.446 219.896 104.492 219.846 104.551 219.811C104.61 219.776 104.68 219.758 104.759 219.758C104.813 219.758 104.863 219.767 104.909 219.784C104.955 219.801 104.996 219.827 105.03 219.861C105.065 219.895 105.092 219.938 105.112 219.99C105.131 220.041 105.141 220.102 105.141 220.171V220.232H104.455V220.093H104.929C104.929 220.061 104.922 220.032 104.908 220.007C104.894 219.982 104.874 219.962 104.849 219.948C104.824 219.934 104.796 219.926 104.763 219.926C104.729 219.926 104.698 219.934 104.672 219.95C104.646 219.966 104.625 219.987 104.611 220.013C104.596 220.039 104.588 220.068 104.588 220.1V220.233C104.588 220.273 104.595 220.308 104.61 220.337C104.625 220.366 104.647 220.389 104.674 220.405C104.702 220.421 104.734 220.429 104.772 220.429C104.797 220.429 104.82 220.425 104.841 220.418C104.861 220.411 104.879 220.4 104.894 220.386C104.909 220.372 104.92 220.355 104.928 220.334L105.136 220.348C105.125 220.398 105.104 220.442 105.071 220.479C105.039 220.516 104.997 220.545 104.945 220.566C104.894 220.586 104.835 220.597 104.768 220.597Z" fill="#FBFBFB"/>
<path d="M105.839 219.769V219.938H105.35V219.769H105.839ZM105.461 219.574H105.686V220.331C105.686 220.352 105.689 220.368 105.695 220.38C105.702 220.391 105.71 220.399 105.722 220.404C105.733 220.408 105.747 220.411 105.762 220.411C105.773 220.411 105.783 220.41 105.794 220.408C105.804 220.406 105.812 220.404 105.818 220.403L105.853 220.571C105.842 220.574 105.826 220.578 105.806 220.583C105.785 220.588 105.761 220.591 105.731 220.592C105.677 220.594 105.629 220.587 105.589 220.57C105.548 220.554 105.517 220.528 105.494 220.493C105.471 220.458 105.46 220.414 105.461 220.361V219.574Z" fill="#FBFBFB"/>
<path d="M106.264 220.581L106.044 219.769H106.271L106.397 220.314H106.405L106.536 219.769H106.759L106.892 220.311H106.899L107.023 219.769H107.25L107.03 220.581H106.791L106.652 220.07H106.642L106.502 220.581H106.264Z" fill="#FBFBFB"/>
<path d="M107.836 220.597C107.754 220.597 107.683 220.579 107.623 220.544C107.563 220.509 107.517 220.46 107.485 220.397C107.452 220.334 107.436 220.261 107.436 220.178C107.436 220.094 107.452 220.021 107.485 219.958C107.517 219.895 107.563 219.846 107.623 219.811C107.683 219.776 107.754 219.758 107.836 219.758C107.918 219.758 107.989 219.776 108.048 219.811C108.108 219.846 108.154 219.895 108.187 219.958C108.219 220.021 108.235 220.094 108.235 220.178C108.235 220.261 108.219 220.334 108.187 220.397C108.154 220.46 108.108 220.509 108.048 220.544C107.989 220.579 107.918 220.597 107.836 220.597ZM107.837 220.422C107.874 220.422 107.905 220.412 107.93 220.391C107.955 220.369 107.974 220.34 107.987 220.303C108 220.266 108.006 220.224 108.006 220.176C108.006 220.129 108 220.087 107.987 220.05C107.974 220.013 107.955 219.984 107.93 219.962C107.905 219.941 107.874 219.93 107.837 219.93C107.799 219.93 107.767 219.941 107.742 219.962C107.716 219.984 107.697 220.013 107.684 220.05C107.671 220.087 107.665 220.129 107.665 220.176C107.665 220.224 107.671 220.266 107.684 220.303C107.697 220.34 107.716 220.369 107.742 220.391C107.767 220.412 107.799 220.422 107.837 220.422Z" fill="#FBFBFB"/>
<path d="M108.501 220.581V219.769H108.719V219.911H108.728C108.742 219.86 108.767 219.822 108.802 219.796C108.837 219.77 108.877 219.757 108.923 219.757C108.934 219.757 108.946 219.758 108.959 219.759C108.972 219.761 108.984 219.763 108.993 219.765V219.965C108.983 219.962 108.968 219.959 108.95 219.957C108.931 219.954 108.914 219.953 108.898 219.953C108.865 219.953 108.836 219.96 108.809 219.975C108.784 219.989 108.763 220.008 108.748 220.034C108.733 220.059 108.726 220.088 108.726 220.121V220.581H108.501Z" fill="#FBFBFB"/>
<path d="M109.433 220.347L109.433 220.077H109.466L109.726 219.769H109.985L109.635 220.177H109.582L109.433 220.347ZM109.229 220.581V219.498H109.454V220.581H109.229ZM109.736 220.581L109.497 220.227L109.647 220.068L110 220.581H109.736Z" fill="#FBFBFB"/>
<path d="M78.5045 215.015C76.9557 213.507 76.7955 211.04 78.1997 209.398C79.7826 207.546 82.6121 207.484 84.2751 209.244C85.6958 210.746 85.7585 213.111 84.4196 214.687C83.915 215.28 83.2834 215.689 82.6029 215.915L84.404 217.668C84.5476 217.51 84.694 217.351 84.8377 217.195C86.1673 215.756 87.542 214.267 87.542 212.272C87.542 208.814 84.729 206.001 81.2715 206.001C77.8139 206.001 75 208.814 75 212.272C75 214.446 76.4097 216.07 77.8544 217.548C79.1288 218.851 80.5763 220.242 81.2623 220.896C81.6527 220.508 82.277 219.885 82.8782 219.274L78.5036 215.015L78.5045 215.015Z" fill="#FBFBFB"/>
<path d="M79.2997 212.046C79.2997 212.519 79.4636 212.992 79.7914 213.367C80.6091 214.301 82.0639 214.281 82.8558 213.326C83.1615 212.957 83.3125 212.502 83.3125 212.046H79.2988H79.2997Z" fill="#FBFBFB"/>
<path d="M81.7129 211.346V210.731C81.7129 210.601 81.7562 210.491 81.8418 210.403C81.9274 210.315 82.0379 210.271 82.1742 210.271C82.3105 210.271 82.4136 210.315 82.502 210.403C82.5904 210.491 82.6346 210.601 82.6346 210.731V211.346" fill="#FBFBFB"/>
<path d="M79.9082 211.346V210.731C79.9082 210.601 79.9515 210.491 80.0371 210.403C80.1227 210.315 80.2332 210.271 80.3695 210.271C80.5058 210.271 80.6089 210.315 80.6973 210.403C80.7857 210.491 80.8299 210.601 80.8299 210.731V211.346" fill="#FBFBFB"/>
<path fill-rule="evenodd" clip-rule="evenodd" d="M148.54 115.284C149.487 113.925 151.357 113.591 152.716 114.539C154.973 116.112 160.722 115.431 166.047 120.383C167.479 121.714 168.42 123.928 169.122 126.105C169.876 128.442 170.539 131.366 171.124 134.667C172.296 141.281 169.205 145.708 169.847 154.638C171.131 172.484 171.371 192.669 170.427 204.959C169.662 214.911 167.097 220.915 162.411 224.1C158.131 227.01 152.712 227.005 148.01 227C147.827 227 147.645 227 147.465 227H144.465V221H147.465C152.858 221 156.425 220.915 159.038 219.138C161.411 217.525 163.723 213.894 164.444 204.5C165.358 192.607 165.134 172.741 163.863 155.068C163.228 146.239 166.337 142.041 165.216 135.714C164.654 132.544 164.047 129.918 163.412 127.946C162.724 125.813 162.156 124.957 161.962 124.777C156.884 120.055 151.363 120.91 149.284 119.461C147.925 118.513 147.592 116.643 148.54 115.284Z" fill="url(#paint1_linear_2010_1215)"/>
<path d="M158.5 132.5L145 99V132.5H158.5Z" fill="url(#paint2_radial_2010_1215)"/>
<defs>
<filter id="filter0_f_2010_1215" x="0" y="243" width="185" height="14" filterUnits="userSpaceOnUse" color-interpolation-filters="sRGB">
<feFlood flood-opacity="0" result="BackgroundImageFix"/>
<feBlend mode="normal" in="SourceGraphic" in2="BackgroundImageFix" result="shape"/>
<feGaussianBlur stdDeviation="2" result="effect1_foregroundBlur_2010_1215"/>
</filter>
<radialGradient id="paint0_radial_2010_1215" cx="0" cy="0" r="1" gradientUnits="userSpaceOnUse" gradientTransform="translate(93 39) rotate(90) scale(205 87.377)">
<stop stop-color="#FBFBFB"/>
<stop offset="1" stop-color="#EDEDED"/>
</radialGradient>
<linearGradient id="paint1_linear_2010_1215" x1="171" y1="166" x2="144" y2="166" gradientUnits="userSpaceOnUse">
<stop stop-color="#272361"/>
<stop offset="0.545"/>
<stop offset="1" stop-color="#272361"/>
</linearGradient>
<radialGradient id="paint2_radial_2010_1215" cx="0" cy="0" r="1" gradientUnits="userSpaceOnUse" gradientTransform="translate(150.5 114) rotate(128.157) scale(8.90225 3.58747)">
<stop stop-color="#FBFBFB"/>
<stop offset="1" stop-color="#EDEDED"/>
</radialGradient>
</defs>
</svg>
