<svg width="136" height="161" viewBox="0 0 136 161" fill="none" xmlns="http://www.w3.org/2000/svg">
<g clip-path="url(#clip0_98_6187)">
<path d="M38.599 97.1766C21.9495 80.9726 20.2272 54.4541 35.3226 36.7949C52.3384 16.8887 82.7569 16.2255 100.634 35.1418C115.907 51.2865 116.581 76.7161 102.188 93.6527C96.7635 100.027 89.973 104.422 82.6579 106.858L102.02 125.705C103.564 124.002 105.138 122.29 106.682 120.617C120.976 105.145 135.754 89.1389 135.754 67.6886C135.754 30.5192 105.514 0.278809 68.3445 0.278809C31.1751 0.278809 0.924805 30.5192 0.924805 67.6985C0.924805 91.0692 16.0796 108.52 31.6106 124.408C45.3103 138.414 60.871 153.371 68.2455 160.399C72.4425 156.232 79.1538 149.54 85.6176 142.968L38.5891 97.1865L38.599 97.1766Z" fill="#00A651"/>
<path d="M47.1515 65.2632C47.1515 70.3511 48.9135 75.439 52.4374 79.4677C61.2274 89.505 76.8672 89.2872 85.3801 79.0223C88.6664 75.0628 90.2898 70.163 90.2898 65.2632H47.1416H47.1515Z" fill="#00A651"/>
<path d="M73.0859 57.7403V51.128C73.0859 49.7323 73.5512 48.5544 74.4717 47.6041C75.3923 46.6538 76.5802 46.1787 78.0452 46.1787C79.5102 46.1787 80.6188 46.6538 81.5691 47.6041C82.5193 48.5544 82.9945 49.7323 82.9945 51.128V57.7403" fill="#272361"/>
<path d="M53.6943 57.7403V51.128C53.6943 49.7323 54.1596 48.5544 55.0801 47.6041C56.0007 46.6538 57.1886 46.1787 58.6536 46.1787C60.1186 46.1787 61.2272 46.6538 62.1775 47.6041C63.1277 48.5544 63.6029 49.7323 63.6029 51.128V57.7403" fill="#272361"/>
</g>
<defs>
<clipPath id="clip0_98_6187">
<rect width="134.829" height="160.12" fill="white" transform="translate(0.924805 0.278809)"/>
</clipPath>
</defs>
</svg>
