<svg width="376" height="173" viewBox="0 0 376 173" fill="none" xmlns="http://www.w3.org/2000/svg">
<g clip-path="url(#clip0_97_5645)">
<path d="M190.113 109.182C190.113 116.666 186.203 120.397 178.393 120.397C174.602 120.397 171.583 119.447 169.346 117.547C167.109 115.646 166 112.855 166 109.172V37.6745C166 25.1725 169.286 15.7688 175.879 9.46335C182.461 3.15791 193.518 0.000244141 209.039 0.000244141C220.532 0.000244141 229.549 3.06882 236.082 9.21588C242.616 15.353 245.882 25.2319 245.882 38.8524C245.882 50.6912 242.784 59.7287 236.587 65.9846C230.391 72.2405 221.65 75.3586 210.376 75.3586C204.011 75.3586 199.408 75.8337 196.557 76.784C193.716 77.7343 191.925 79.4666 191.202 81.9709C190.479 84.4852 190.113 88.1378 190.113 92.9386V109.182ZM188.609 60.7878C189.945 59.6693 191.232 58.6992 192.459 57.8578C193.687 57.0164 195.33 56.3532 197.399 55.8484C199.467 55.3436 202.229 55.0961 205.684 55.0961C210.485 55.0961 214.276 54.6804 217.067 53.839C219.859 52.9976 221.838 51.4138 223.016 49.0678C224.184 46.7218 224.778 43.3167 224.778 38.8524C224.778 32.933 224.075 28.6073 222.69 25.8753C221.294 23.1433 219.344 21.3516 216.83 20.5201C214.315 19.6787 211.276 19.263 207.703 19.263C201.229 19.263 196.676 20.431 194.053 22.777C191.43 25.123 190.123 29.2012 190.123 35.0018C190.123 39.1296 190.014 43.6533 189.786 48.563C189.559 53.4727 189.173 57.551 188.618 60.7878H188.609Z" fill="#272361"/>
<path d="M267.026 120.397C258.761 120.397 254.633 116.656 254.633 109.182V11.2153C254.633 7.30533 255.583 4.46442 257.484 2.67277C259.384 0.891011 262.393 -0.00976562 266.531 -0.00976562C274.678 -0.00976562 278.756 3.73192 278.756 11.2054V109.162C278.756 112.954 277.835 115.775 275.994 117.616C274.153 119.457 271.164 120.378 267.036 120.378L267.026 120.397Z" fill="#272361"/>
<path d="M313.767 109.182C313.767 116.666 309.857 120.397 302.047 120.397C298.256 120.397 295.237 119.447 293 117.547C290.763 115.646 289.654 112.855 289.654 109.172V43.3661C289.654 32.8735 291.05 24.4696 293.841 18.1641C296.633 11.8587 301.206 7.25584 307.571 4.34564C313.936 1.44534 322.419 -0.00976562 333.02 -0.00976562C347.086 -0.00976562 357.717 3.25679 364.924 9.78989C372.12 16.323 375.723 27.5085 375.723 43.3661V109.172C375.723 116.656 371.813 120.387 364.003 120.387C360.212 120.387 357.193 119.437 354.956 117.537C352.719 115.636 351.61 112.845 351.61 109.162V43.3661C351.61 35.1106 350.185 29.2209 347.344 25.697C344.503 22.183 339.722 20.421 333.03 20.421C327.784 20.421 323.765 21.203 320.974 22.767C318.182 24.331 316.282 26.7859 315.282 30.1316C314.272 33.4773 313.777 37.8921 313.777 43.3562V109.162L313.767 109.182Z" fill="#272361"/>
<path d="M176.936 160V137.728H185.723C187.412 137.728 188.851 138.051 190.04 138.696C191.229 139.334 192.135 140.222 192.759 141.36C193.39 142.491 193.705 143.796 193.705 145.275C193.705 146.754 193.386 148.059 192.748 149.19C192.11 150.321 191.186 151.202 189.975 151.833C188.771 152.464 187.314 152.779 185.603 152.779H180.002V149.005H184.842C185.748 149.005 186.495 148.85 187.082 148.538C187.677 148.219 188.119 147.78 188.409 147.222C188.706 146.656 188.855 146.008 188.855 145.275C188.855 144.536 188.706 143.891 188.409 143.34C188.119 142.781 187.677 142.35 187.082 142.045C186.488 141.734 185.734 141.578 184.82 141.578H181.645V160H176.936ZM203.759 137.728V160H199.126V137.728H203.759ZM220.632 152.888V143.296H225.265V160H220.817V156.966H220.643C220.266 157.945 219.639 158.731 218.761 159.326C217.891 159.92 216.829 160.217 215.575 160.217C214.459 160.217 213.476 159.964 212.628 159.456C211.78 158.949 211.116 158.227 210.638 157.292C210.167 156.357 209.927 155.237 209.92 153.932V143.296H214.553V153.105C214.56 154.091 214.825 154.871 215.347 155.443C215.869 156.016 216.568 156.303 217.446 156.303C218.004 156.303 218.526 156.176 219.012 155.922C219.497 155.661 219.889 155.277 220.186 154.769C220.491 154.262 220.639 153.635 220.632 152.888ZM238.946 166.612C237.445 166.612 236.158 166.405 235.085 165.992C234.019 165.586 233.171 165.031 232.54 164.328C231.91 163.625 231.5 162.835 231.311 161.957L235.596 161.381C235.727 161.715 235.933 162.026 236.216 162.316C236.499 162.606 236.872 162.838 237.336 163.012C237.807 163.194 238.38 163.284 239.054 163.284C240.062 163.284 240.892 163.038 241.545 162.545C242.204 162.059 242.534 161.243 242.534 160.098V157.042H242.339C242.136 157.506 241.831 157.945 241.425 158.358C241.019 158.771 240.497 159.108 239.859 159.369C239.221 159.63 238.46 159.761 237.575 159.761C236.321 159.761 235.179 159.471 234.15 158.891C233.128 158.304 232.312 157.408 231.703 156.205C231.101 154.994 230.8 153.464 230.8 151.615C230.8 149.723 231.108 148.143 231.725 146.874C232.341 145.605 233.16 144.655 234.182 144.025C235.212 143.394 236.339 143.079 237.565 143.079C238.5 143.079 239.283 143.238 239.913 143.557C240.544 143.869 241.052 144.26 241.436 144.732C241.827 145.196 242.128 145.652 242.339 146.102H242.513V143.296H247.113V160.163C247.113 161.584 246.765 162.773 246.069 163.73C245.373 164.687 244.408 165.405 243.176 165.883C241.951 166.369 240.541 166.612 238.946 166.612ZM239.044 156.281C239.79 156.281 240.421 156.096 240.936 155.726C241.458 155.349 241.856 154.813 242.132 154.117C242.415 153.413 242.556 152.572 242.556 151.594C242.556 150.615 242.418 149.767 242.143 149.049C241.867 148.324 241.469 147.762 240.947 147.363C240.425 146.965 239.79 146.765 239.044 146.765C238.282 146.765 237.641 146.972 237.119 147.385C236.597 147.791 236.202 148.357 235.933 149.082C235.665 149.807 235.531 150.644 235.531 151.594C235.531 152.558 235.665 153.392 235.933 154.095C236.209 154.791 236.604 155.331 237.119 155.715C237.641 156.092 238.282 156.281 239.044 156.281ZM260.775 166.612C259.274 166.612 257.987 166.405 256.914 165.992C255.848 165.586 255 165.031 254.369 164.328C253.739 163.625 253.329 162.835 253.14 161.957L257.425 161.381C257.556 161.715 257.762 162.026 258.045 162.316C258.328 162.606 258.701 162.838 259.165 163.012C259.636 163.194 260.209 163.284 260.883 163.284C261.891 163.284 262.721 163.038 263.374 162.545C264.034 162.059 264.363 161.243 264.363 160.098V157.042H264.168C263.965 157.506 263.66 157.945 263.254 158.358C262.848 158.771 262.326 159.108 261.688 159.369C261.05 159.63 260.289 159.761 259.404 159.761C258.15 159.761 257.008 159.471 255.979 158.891C254.957 158.304 254.141 157.408 253.532 156.205C252.93 154.994 252.629 153.464 252.629 151.615C252.629 149.723 252.937 148.143 253.554 146.874C254.17 145.605 254.989 144.655 256.011 144.025C257.041 143.394 258.168 143.079 259.394 143.079C260.329 143.079 261.112 143.238 261.743 143.557C262.373 143.869 262.881 144.26 263.265 144.732C263.657 145.196 263.957 145.652 264.168 146.102H264.342V143.296H268.942V160.163C268.942 161.584 268.594 162.773 267.898 163.73C267.202 164.687 266.238 165.405 265.005 165.883C263.78 166.369 262.37 166.612 260.775 166.612ZM260.873 156.281C261.619 156.281 262.25 156.096 262.765 155.726C263.287 155.349 263.686 154.813 263.961 154.117C264.244 153.413 264.385 152.572 264.385 151.594C264.385 150.615 264.247 149.767 263.972 149.049C263.696 148.324 263.298 147.762 262.776 147.363C262.254 146.965 261.619 146.765 260.873 146.765C260.111 146.765 259.47 146.972 258.948 147.385C258.426 147.791 258.031 148.357 257.762 149.082C257.494 149.807 257.36 150.644 257.36 151.594C257.36 152.558 257.494 153.392 257.762 154.095C258.038 154.791 258.433 155.331 258.948 155.715C259.47 156.092 260.111 156.281 260.873 156.281ZM282.691 160.326C280.972 160.326 279.493 159.978 278.254 159.282C277.021 158.579 276.072 157.586 275.405 156.303C274.738 155.012 274.404 153.486 274.404 151.724C274.404 150.006 274.738 148.498 275.405 147.2C276.072 145.902 277.01 144.891 278.221 144.166C279.439 143.441 280.867 143.079 282.506 143.079C283.608 143.079 284.634 143.256 285.583 143.611C286.54 143.959 287.374 144.485 288.085 145.188C288.802 145.892 289.361 146.776 289.759 147.842C290.158 148.9 290.358 150.14 290.358 151.561V152.833H276.253V149.962H285.997C285.997 149.295 285.852 148.705 285.562 148.19C285.272 147.675 284.869 147.273 284.355 146.983C283.847 146.685 283.256 146.537 282.582 146.537C281.879 146.537 281.255 146.7 280.711 147.026C280.175 147.345 279.754 147.777 279.45 148.32C279.145 148.857 278.99 149.455 278.982 150.115V152.844C278.982 153.671 279.135 154.385 279.439 154.987C279.751 155.588 280.189 156.052 280.755 156.379C281.32 156.705 281.991 156.868 282.767 156.868C283.282 156.868 283.753 156.796 284.181 156.651C284.608 156.506 284.974 156.288 285.279 155.998C285.583 155.708 285.815 155.353 285.975 154.932L290.26 155.215C290.042 156.245 289.596 157.144 288.922 157.912C288.255 158.673 287.392 159.268 286.334 159.696C285.283 160.116 284.068 160.326 282.691 160.326ZM301.986 160.272C300.717 160.272 299.568 159.946 298.539 159.293C297.516 158.633 296.704 157.666 296.103 156.39C295.508 155.106 295.211 153.533 295.211 151.67C295.211 149.756 295.519 148.164 296.135 146.896C296.751 145.62 297.571 144.666 298.593 144.036C299.622 143.398 300.75 143.079 301.975 143.079C302.91 143.079 303.69 143.238 304.313 143.557C304.944 143.869 305.451 144.26 305.836 144.732C306.227 145.196 306.524 145.652 306.727 146.102H306.869V137.728H311.491V160H306.923V157.325H306.727C306.51 157.789 306.202 158.249 305.803 158.706C305.412 159.155 304.9 159.529 304.27 159.826C303.646 160.123 302.885 160.272 301.986 160.272ZM303.454 156.585C304.201 156.585 304.832 156.382 305.346 155.976C305.868 155.563 306.267 154.987 306.543 154.247C306.825 153.508 306.967 152.641 306.967 151.648C306.967 150.655 306.829 149.792 306.553 149.06C306.278 148.328 305.879 147.762 305.357 147.363C304.835 146.965 304.201 146.765 303.454 146.765C302.693 146.765 302.051 146.972 301.529 147.385C301.007 147.798 300.612 148.371 300.344 149.103C300.076 149.836 299.941 150.684 299.941 151.648C299.941 152.62 300.076 153.479 300.344 154.225C300.619 154.965 301.014 155.545 301.529 155.965C302.051 156.379 302.693 156.585 303.454 156.585ZM332.083 137.728V160H327.374V137.728H332.083ZM342.953 150.343V160H338.32V143.296H342.735V146.243H342.931C343.301 145.272 343.921 144.503 344.791 143.938C345.661 143.365 346.716 143.079 347.955 143.079C349.115 143.079 350.127 143.332 350.989 143.84C351.852 144.347 352.523 145.072 353.001 146.015C353.48 146.95 353.719 148.067 353.719 149.364V160H349.086V150.191C349.094 149.169 348.833 148.371 348.303 147.798C347.774 147.218 347.045 146.928 346.117 146.928C345.494 146.928 344.943 147.062 344.464 147.331C343.993 147.599 343.623 147.99 343.355 148.505C343.094 149.013 342.96 149.625 342.953 150.343ZM365.356 137.728L364.931 153.323H360.951L360.516 137.728H365.356ZM362.941 160.283C362.224 160.283 361.607 160.029 361.093 159.522C360.578 159.007 360.324 158.391 360.331 157.673C360.324 156.962 360.578 156.353 361.093 155.846C361.607 155.338 362.224 155.085 362.941 155.085C363.63 155.085 364.235 155.338 364.757 155.846C365.279 156.353 365.544 156.962 365.551 157.673C365.544 158.151 365.417 158.59 365.171 158.989C364.931 159.38 364.616 159.696 364.225 159.935C363.833 160.167 363.405 160.283 362.941 160.283Z" fill="#272361"/>
<path d="M37.599 96.8978C20.9495 80.6937 19.2272 54.1753 34.3226 36.5161C51.3384 16.6099 81.7569 15.9467 99.6339 34.863C114.907 51.0077 115.581 76.4373 101.188 93.3739C95.7635 99.7486 88.973 104.144 81.6579 106.579L101.02 125.426C102.564 123.723 104.138 122.011 105.682 120.338C119.976 104.866 134.754 88.8601 134.754 67.4098C134.754 30.2404 104.514 0 67.3445 0C30.1751 0 -0.0751953 30.2404 -0.0751953 67.4197C-0.0751953 90.7904 15.0796 108.242 30.6106 124.129C44.3103 138.136 59.871 153.092 67.2455 160.12C71.4425 155.953 78.1538 149.262 84.6176 142.689L37.5891 96.9077L37.599 96.8978Z" fill="#00A651"/>
<path d="M46.1515 64.9844C46.1515 70.0723 47.9135 75.1602 51.4374 79.1889C60.2274 89.2262 75.8672 89.0084 84.3801 78.7435C87.6664 74.784 89.2898 69.8842 89.2898 64.9844H46.1416H46.1515Z" fill="#00A651"/>
<path d="M72.0859 57.4618V50.8495C72.0859 49.4538 72.5512 48.2758 73.4717 47.3256C74.3923 46.3753 75.5802 45.9001 77.0452 45.9001C78.5102 45.9001 79.6188 46.3753 80.5691 47.3256C81.5193 48.2758 81.9945 49.4538 81.9945 50.8495V57.4618" fill="#272361"/>
<path d="M52.6943 57.4618V50.8495C52.6943 49.4538 53.1596 48.2758 54.0801 47.3256C55.0007 46.3753 56.1886 45.9001 57.6536 45.9001C59.1186 45.9001 60.2272 46.3753 61.1775 47.3256C62.1277 48.2758 62.6029 49.4538 62.6029 50.8495V57.4618" fill="#272361"/>
</g>
<defs>
<clipPath id="clip0_97_5645">
<rect width="376" height="173" fill="white"/>
</clipPath>
</defs>
</svg>
