<svg width="72" height="34" viewBox="0 0 72 34" fill="none" xmlns="http://www.w3.org/2000/svg">
<g clip-path="url(#clip0_483_5637)">
<path d="M36.4045 20.9072C36.4045 22.3402 35.6558 23.0548 34.1603 23.0548C33.4343 23.0548 32.8562 22.8728 32.4278 22.5089C31.9994 22.145 31.7871 21.6104 31.7871 20.9053V7.21422C31.7871 4.82022 32.4164 3.01951 33.6788 1.81208C34.9393 0.60466 37.0566 0 40.0287 0C42.2293 0 43.9561 0.5876 45.2071 1.7647C46.4582 2.9399 47.0837 4.83159 47.0837 7.43978C47.0837 9.70678 46.4904 11.4374 45.3038 12.6353C44.1172 13.8333 42.4435 14.4303 40.2846 14.4303C39.0658 14.4303 38.1844 14.5213 37.6385 14.7033C37.0945 14.8852 36.7514 15.217 36.613 15.6965C36.4746 16.178 36.4045 16.8774 36.4045 17.7967V20.9072ZM36.1164 11.6402C36.3723 11.426 36.6187 11.2402 36.8537 11.0791C37.0888 10.918 37.4034 10.791 37.7996 10.6943C38.1957 10.5977 38.7246 10.5503 39.3861 10.5503C40.3054 10.5503 41.0314 10.4707 41.5659 10.3095C42.1004 10.1484 42.4795 9.84515 42.7051 9.39592C42.9288 8.94669 43.0425 8.29464 43.0425 7.43978C43.0425 6.30628 42.9079 5.47795 42.6426 4.9548C42.3753 4.43164 42.0019 4.08856 41.5204 3.92934C41.039 3.76822 40.4571 3.68861 39.7728 3.68861C38.5331 3.68861 37.6612 3.91228 37.1589 4.36151C36.6566 4.81074 36.4064 5.59168 36.4064 6.70244C36.4064 7.49285 36.3856 8.35909 36.342 9.29925C36.2984 10.2394 36.2244 11.0203 36.1183 11.6402H36.1164Z" fill="white"/>
<path d="M51.1329 23.0547C49.5502 23.0547 48.7598 22.3382 48.7598 20.9071V2.14753C48.7598 1.39881 48.9417 0.854806 49.3057 0.511723C49.6696 0.170536 50.2458 -0.00195312 51.0381 -0.00195312C52.5981 -0.00195312 53.3791 0.71454 53.3791 2.14563V20.9034C53.3791 21.6293 53.2028 22.1695 52.8502 22.5221C52.4977 22.8747 51.9252 23.0509 51.1348 23.0509L51.1329 23.0547Z" fill="white"/>
<path d="M60.0822 20.9071C60.0822 22.3401 59.3335 23.0547 57.838 23.0547C57.112 23.0547 56.5339 22.8728 56.1055 22.5088C55.6771 22.1449 55.4648 21.6104 55.4648 20.9052V8.30406C55.4648 6.29485 55.7321 4.68558 56.2666 3.47816C56.8012 2.27073 57.6769 1.38933 58.8957 0.83206C60.1145 0.276683 61.7389 -0.00195312 63.769 -0.00195312C66.4624 -0.00195312 68.4982 0.623557 69.8781 1.87458C71.2561 3.1256 71.9461 5.26749 71.9461 8.30406V20.9052C71.9461 22.3382 71.1974 23.0528 69.7018 23.0528C68.9759 23.0528 68.3977 22.8709 67.9694 22.5069C67.541 22.143 67.3287 21.6085 67.3287 20.9034V8.30406C67.3287 6.72323 67.0557 5.59541 66.5117 4.92062C65.9677 4.24772 65.0522 3.91033 63.7709 3.91033C62.7663 3.91033 61.9967 4.06007 61.4622 4.35956C60.9276 4.65904 60.5637 5.12912 60.3723 5.7698C60.1789 6.41047 60.0841 7.25586 60.0841 8.30217V20.9034L60.0822 20.9071Z" fill="white"/>
<path d="M33.8804 30.8936V26.6287H35.563C35.8865 26.6287 36.1621 26.6905 36.3898 26.8141C36.6175 26.9362 36.791 27.1063 36.9104 27.3243C37.0312 27.5408 37.0916 27.7907 37.0916 28.0739C37.0916 28.3571 37.0305 28.607 36.9083 28.8236C36.7861 29.0402 36.6091 29.2089 36.3773 29.3296C36.1468 29.4504 35.8678 29.5108 35.5401 29.5108H34.4677V28.7882H35.3944C35.5679 28.7882 35.7109 28.7584 35.8234 28.6987C35.9372 28.6376 36.0219 28.5536 36.0774 28.4467C36.1343 28.3384 36.1628 28.2142 36.1628 28.0739C36.1628 27.9323 36.1343 27.8088 36.0774 27.7033C36.0219 27.5964 35.9372 27.5138 35.8234 27.4555C35.7095 27.3958 35.5651 27.3659 35.3902 27.3659H34.7821V30.8936H33.8804ZM39.0168 26.6287V30.8936H38.1297V26.6287H39.0168ZM42.2478 29.5316V27.6949H43.1349V30.8936H42.2832V30.3126H42.2499C42.1777 30.5 42.0576 30.6506 41.8896 30.7644C41.723 30.8783 41.5196 30.9352 41.2795 30.9352C41.0657 30.9352 40.8775 30.8866 40.7151 30.7894C40.5527 30.6923 40.4257 30.5541 40.334 30.375C40.2438 30.1959 40.198 29.9814 40.1966 29.7316V27.6949H41.0837V29.5733C41.0851 29.7621 41.1358 29.9113 41.2357 30.021C41.3357 30.1307 41.4697 30.1855 41.6376 30.1855C41.7445 30.1855 41.8445 30.1612 41.9375 30.1126C42.0305 30.0627 42.1055 29.9891 42.1624 29.8919C42.2207 29.7947 42.2492 29.6746 42.2478 29.5316ZM45.7547 32.1597C45.4673 32.1597 45.2209 32.1201 45.0154 32.041C44.8113 31.9632 44.6489 31.857 44.5281 31.7224C44.4073 31.5877 44.3289 31.4364 44.2928 31.2684L45.1133 31.158C45.1383 31.2219 45.1778 31.2816 45.232 31.3371C45.2861 31.3926 45.3576 31.4371 45.4465 31.4704C45.5367 31.5051 45.6464 31.5225 45.7755 31.5225C45.9685 31.5225 46.1274 31.4752 46.2524 31.3808C46.3787 31.2878 46.4419 31.1316 46.4419 30.9123V30.3271H46.4044C46.3655 30.416 46.3072 30.5 46.2295 30.5791C46.1517 30.6582 46.0518 30.7228 45.9296 30.7728C45.8074 30.8228 45.6617 30.8477 45.4923 30.8477C45.2521 30.8477 45.0335 30.7922 44.8363 30.6811C44.6406 30.5687 44.4844 30.3972 44.3678 30.1668C44.2525 29.9349 44.1949 29.642 44.1949 29.288C44.1949 28.9257 44.2539 28.623 44.3719 28.3801C44.4899 28.1371 44.6468 27.9552 44.8426 27.8345C45.0397 27.7137 45.2556 27.6533 45.4902 27.6533C45.6693 27.6533 45.8192 27.6838 45.94 27.7449C46.0608 27.8046 46.158 27.8796 46.2316 27.9698C46.3065 28.0587 46.3641 28.1461 46.4044 28.2322H46.4377V27.6949H47.3186V30.9248C47.3186 31.1969 47.2519 31.4246 47.1187 31.6078C46.9854 31.7911 46.8007 31.9285 46.5647 32.0202C46.3301 32.1132 46.0601 32.1597 45.7547 32.1597ZM45.7734 30.1814C45.9164 30.1814 46.0372 30.146 46.1358 30.0752C46.2357 30.003 46.3121 29.9002 46.3648 29.767C46.419 29.6323 46.446 29.4713 46.446 29.2838C46.446 29.0964 46.4197 28.934 46.3669 28.7965C46.3142 28.6577 46.2378 28.5501 46.1378 28.4738C46.0379 28.3974 45.9164 28.3592 45.7734 28.3592C45.6276 28.3592 45.5048 28.3988 45.4048 28.4779C45.3049 28.5557 45.2292 28.664 45.1778 28.8028C45.1265 28.9416 45.1008 29.102 45.1008 29.2838C45.1008 29.4685 45.1265 29.6281 45.1778 29.7628C45.2306 29.8961 45.3063 29.9995 45.4048 30.0731C45.5048 30.1453 45.6276 30.1814 45.7734 30.1814ZM49.9347 32.1597C49.6473 32.1597 49.4009 32.1201 49.1954 32.041C48.9914 31.9632 48.8289 31.857 48.7081 31.7224C48.5874 31.5877 48.5089 31.4364 48.4728 31.2684L49.2933 31.158C49.3183 31.2219 49.3579 31.2816 49.412 31.3371C49.4662 31.3926 49.5377 31.4371 49.6265 31.4704C49.7167 31.5051 49.8264 31.5225 49.9555 31.5225C50.1485 31.5225 50.3075 31.4752 50.4324 31.3808C50.5587 31.2878 50.6219 31.1316 50.6219 30.9123V30.3271H50.5844C50.5456 30.416 50.4872 30.5 50.4095 30.5791C50.3318 30.6582 50.2318 30.7228 50.1096 30.7728C49.9875 30.8228 49.8417 30.8477 49.6723 30.8477C49.4321 30.8477 49.2135 30.7922 49.0163 30.6811C48.8206 30.5687 48.6644 30.3972 48.5478 30.1668C48.4326 29.9349 48.375 29.642 48.375 29.288C48.375 28.9257 48.434 28.623 48.552 28.3801C48.67 28.1371 48.8268 27.9552 49.0226 27.8345C49.2197 27.7137 49.4356 27.6533 49.6702 27.6533C49.8493 27.6533 49.9993 27.6838 50.12 27.7449C50.2408 27.8046 50.338 27.8796 50.4116 27.9698C50.4865 28.0587 50.5442 28.1461 50.5844 28.2322H50.6177V27.6949H51.4986V30.9248C51.4986 31.1969 51.432 31.4246 51.2987 31.6078C51.1654 31.7911 50.9808 31.9285 50.7448 32.0202C50.5102 32.1132 50.2401 32.1597 49.9347 32.1597ZM49.9534 30.1814C50.0964 30.1814 50.2172 30.146 50.3158 30.0752C50.4157 30.003 50.4921 29.9002 50.5449 29.767C50.599 29.6323 50.6261 29.4713 50.6261 29.2838C50.6261 29.0964 50.5997 28.934 50.5469 28.7965C50.4942 28.6577 50.4178 28.5501 50.3179 28.4738C50.2179 28.3974 50.0964 28.3592 49.9534 28.3592C49.8077 28.3592 49.6848 28.3988 49.5849 28.4779C49.4849 28.5557 49.4092 28.664 49.3579 28.8028C49.3065 28.9416 49.2808 29.102 49.2808 29.2838C49.2808 29.4685 49.3065 29.6281 49.3579 29.7628C49.4106 29.8961 49.4863 29.9995 49.5849 30.0731C49.6848 30.1453 49.8077 30.1814 49.9534 30.1814ZM54.1314 30.956C53.8024 30.956 53.5192 30.8894 53.2818 30.7561C53.0458 30.6214 52.8639 30.4313 52.7362 30.1855C52.6084 29.9384 52.5446 29.6462 52.5446 29.3088C52.5446 28.9798 52.6084 28.691 52.7362 28.4425C52.8639 28.194 53.0437 28.0004 53.2755 27.8615C53.5087 27.7227 53.7822 27.6533 54.096 27.6533C54.307 27.6533 54.5035 27.6873 54.6853 27.7553C54.8686 27.822 55.0282 27.9226 55.1643 28.0573C55.3017 28.1919 55.4086 28.3613 55.485 28.5654C55.5613 28.7681 55.5995 29.0055 55.5995 29.2776V29.5212H52.8986V28.9715H54.7645C54.7645 28.8437 54.7367 28.7306 54.6812 28.632C54.6256 28.5335 54.5486 28.4564 54.45 28.4009C54.3528 28.344 54.2397 28.3155 54.1106 28.3155C53.9759 28.3155 53.8565 28.3467 53.7524 28.4092C53.6497 28.4703 53.5691 28.5529 53.5108 28.657C53.4525 28.7598 53.4227 28.8743 53.4213 29.0006V29.5233C53.4213 29.6816 53.4504 29.8183 53.5087 29.9336C53.5684 30.0488 53.6524 30.1376 53.7607 30.2001C53.869 30.2626 53.9974 30.2938 54.146 30.2938C54.2445 30.2938 54.3348 30.2799 54.4167 30.2522C54.4986 30.2244 54.5687 30.1828 54.627 30.1272C54.6853 30.0717 54.7297 30.0037 54.7603 29.9231L55.5808 29.9773C55.5391 30.1744 55.4537 30.3466 55.3246 30.4937C55.1969 30.6395 55.0317 30.7533 54.829 30.8352C54.6277 30.9158 54.3952 30.956 54.1314 30.956ZM57.8262 30.9456C57.5833 30.9456 57.3632 30.8831 57.1661 30.7582C56.9703 30.6319 56.8148 30.4465 56.6996 30.2022C56.5858 29.9565 56.5289 29.6552 56.5289 29.2984C56.5289 28.9319 56.5879 28.6272 56.7059 28.3842C56.8239 28.1399 56.9807 27.9573 57.1765 27.8365C57.3736 27.7144 57.5895 27.6533 57.8241 27.6533C58.0032 27.6533 58.1525 27.6838 58.2719 27.7449C58.3926 27.8046 58.4898 27.8796 58.5634 27.9698C58.6384 28.0587 58.6953 28.1461 58.7342 28.2322H58.7612V26.6287H59.6463V30.8936H58.7716V30.3813H58.7342C58.6925 30.4701 58.6335 30.5583 58.5572 30.6457C58.4822 30.7318 58.3843 30.8033 58.2635 30.8602C58.1441 30.9172 57.9984 30.9456 57.8262 30.9456ZM58.1073 30.2397C58.2503 30.2397 58.3711 30.2008 58.4697 30.1231C58.5696 30.0439 58.646 29.9336 58.6988 29.7919C58.7529 29.6503 58.78 29.4844 58.78 29.2942C58.78 29.104 58.7536 28.9388 58.7008 28.7986C58.6481 28.6584 58.5717 28.5501 58.4718 28.4738C58.3718 28.3974 58.2503 28.3592 58.1073 28.3592C57.9616 28.3592 57.8387 28.3988 57.7388 28.4779C57.6388 28.5571 57.5631 28.6667 57.5118 28.807C57.4604 28.9472 57.4347 29.1096 57.4347 29.2942C57.4347 29.4803 57.4604 29.6448 57.5118 29.7878C57.5645 29.9294 57.6402 30.0405 57.7388 30.121C57.8387 30.2001 57.9616 30.2397 58.1073 30.2397ZM63.5895 26.6287V30.8936H62.6878V26.6287H63.5895ZM65.6709 29.0444V30.8936H64.7838V27.6949H65.6293V28.2593H65.6668C65.7376 28.0732 65.8563 27.9261 66.0229 27.8178C66.1895 27.7081 66.3915 27.6533 66.6289 27.6533C66.851 27.6533 67.0447 27.7019 67.2099 27.7991C67.3751 27.8962 67.5035 28.0351 67.5951 28.2155C67.6867 28.3946 67.7326 28.6084 67.7326 28.8569V30.8936H66.8454V29.0152C66.8468 28.8194 66.7968 28.6667 66.6955 28.5571C66.5942 28.446 66.4546 28.3905 66.2769 28.3905C66.1575 28.3905 66.052 28.4162 65.9604 28.4675C65.8702 28.5189 65.7994 28.5939 65.748 28.6924C65.698 28.7896 65.6723 28.9069 65.6709 29.0444ZM69.9608 26.6287L69.8796 29.6149H69.1174L69.0341 26.6287H69.9608ZM69.4985 30.9477C69.3611 30.9477 69.2431 30.8991 69.1445 30.8019C69.0459 30.7034 68.9973 30.5854 68.9987 30.4479C68.9973 30.3119 69.0459 30.1952 69.1445 30.0981C69.2431 30.0009 69.3611 29.9523 69.4985 29.9523C69.6304 29.9523 69.7463 30.0009 69.8463 30.0981C69.9462 30.1952 69.9969 30.3119 69.9983 30.4479C69.9969 30.5395 69.9726 30.6235 69.9254 30.6999C69.8796 30.7749 69.8192 30.8352 69.7442 30.8811C69.6693 30.9255 69.5874 30.9477 69.4985 30.9477Z" fill="white"/>
<path d="M7.19859 18.5549C4.01039 15.452 3.68057 10.374 6.57119 6.99244C9.82952 3.18062 15.6543 3.05363 19.0776 6.6759C22.0023 9.76744 22.1312 14.6369 19.3752 17.8801C18.3365 19.1008 17.0362 19.9424 15.6354 20.4087L19.343 24.0177C19.6387 23.6917 19.94 23.3637 20.2357 23.0434C22.9728 20.0808 25.8028 17.0158 25.8028 12.9083C25.8028 5.79071 20.0121 0 12.8945 0C5.77698 0 -0.015625 5.79071 -0.015625 12.9101C-0.015625 17.3854 2.88636 20.7271 5.86038 23.7694C8.48373 26.4515 11.4634 29.3156 12.8756 30.6614C13.6793 29.8634 14.9644 28.582 16.2021 27.3234L7.19669 18.5568L7.19859 18.5549Z" fill="white"/>
<path d="M8.83588 12.4434C8.83588 13.4176 9.17328 14.3919 9.84807 15.1634C11.5313 17.0854 14.5261 17.0437 16.1562 15.0781C16.7855 14.3199 17.0964 13.3816 17.0964 12.4434H8.83398H8.83588Z" fill="white"/>
<path d="M13.8027 11.003V9.73681C13.8027 9.46954 13.8918 9.24398 14.0681 9.06201C14.2444 8.88005 14.4718 8.78906 14.7524 8.78906C15.0329 8.78906 15.2452 8.88005 15.4272 9.06201C15.6091 9.24398 15.7001 9.46954 15.7001 9.73681V11.003" fill="white"/>
<path d="M10.0898 11.003V9.73681C10.0898 9.46954 10.1789 9.24398 10.3552 9.06201C10.5315 8.88005 10.7589 8.78906 11.0395 8.78906C11.32 8.78906 11.5323 8.88005 11.7143 9.06201C11.8962 9.24398 11.9872 9.46954 11.9872 9.73681V11.003" fill="white"/>
</g>
<defs>
<clipPath id="clip0_483_5637">
<rect width="72" height="33.1277" fill="white"/>
</clipPath>
</defs>
</svg>
