<svg width="128" height="128" viewBox="0 0 128 128" fill="none" xmlns="http://www.w3.org/2000/svg">
<g opacity="0.3">
<path d="M63.9847 114.666C57.0487 114.666 50.5007 113.337 44.3407 110.68C38.1815 108.022 32.8029 104.394 28.2047 99.7957C23.6064 95.1974 19.9784 89.8188 17.3207 83.6597C14.6629 77.4997 13.334 70.9517 13.334 64.0157C13.334 56.9952 14.6655 50.4188 17.3287 44.2863C19.9918 38.153 23.6175 32.7926 28.206 28.205C32.7935 23.6166 38.1713 19.9908 44.3393 17.3277C50.5073 14.6646 57.0558 13.333 63.9847 13.333C70.9971 13.333 77.5718 14.6646 83.7087 17.3277C89.8455 19.9908 95.2078 23.6166 99.7953 28.205C104.384 32.7926 108.01 38.153 110.673 44.2863C113.336 50.4188 114.667 56.9952 114.667 64.0157C114.667 70.9517 113.336 77.5019 110.673 83.6663C108.01 89.8308 104.384 95.2068 99.7953 99.7943C95.2078 104.383 89.8473 108.009 83.714 110.672C77.5815 113.335 71.0051 114.666 63.9847 114.666ZM40.0007 68.1023C41.8807 68.1023 43.4789 67.4441 44.7953 66.1277C46.1118 64.8112 46.77 63.213 46.77 61.333C46.77 59.453 46.1118 57.8548 44.7953 56.5383C43.4789 55.2219 41.8807 54.5637 40.0007 54.5637C38.1207 54.5637 36.5224 55.2219 35.206 56.5383C33.8895 57.8548 33.2313 59.453 33.2313 61.333C33.2313 63.213 33.8895 64.8112 35.206 66.1277C36.5224 67.4441 38.1207 68.1023 40.0007 68.1023ZM88.0007 68.1023C89.8807 68.1023 91.4789 67.4441 92.7953 66.1277C94.1118 64.8112 94.77 63.213 94.77 61.333C94.77 59.453 94.1118 57.8548 92.7953 56.5383C91.4789 55.2219 89.8807 54.5637 88.0007 54.5637C86.1207 54.5637 84.5224 55.2219 83.206 56.5383C81.8895 57.8548 81.2313 59.453 81.2313 61.333C81.2313 63.213 81.8895 64.8112 83.206 66.1277C84.5224 67.4441 86.1207 68.1023 88.0007 68.1023ZM48.0007 92.1023C49.8807 92.1023 51.4789 91.4441 52.7953 90.1277C54.1118 88.8112 54.77 87.213 54.77 85.333C54.77 83.453 54.1118 81.8548 52.7953 80.5383C51.4789 79.2219 49.8807 78.5637 48.0007 78.5637C46.1207 78.5637 44.5224 79.2219 43.206 80.5383C41.8895 81.8548 41.2313 83.453 41.2313 85.333C41.2313 87.213 41.8895 88.8112 43.206 90.1277C44.5224 91.4441 46.1207 92.1023 48.0007 92.1023ZM80.0007 92.1023C81.8807 92.1023 83.4789 91.4441 84.7953 90.1277C86.1118 88.8112 86.77 87.213 86.77 85.333C86.77 83.453 86.1118 81.8548 84.7953 80.5383C83.4789 79.2219 81.8807 78.5637 80.0007 78.5637C78.1207 78.5637 76.5224 79.2219 75.206 80.5383C73.8895 81.8548 73.2313 83.453 73.2313 85.333C73.2313 87.213 73.8895 88.8112 75.206 90.1277C76.5224 91.4441 78.1207 92.1023 80.0007 92.1023ZM56.0007 46.769H72.0007C73.9358 46.769 75.5478 46.1246 76.8367 44.8357C78.1255 43.5468 78.77 41.9348 78.77 39.9997C78.77 38.0646 78.1255 36.4526 76.8367 35.1637C75.5478 33.8748 73.9358 33.2303 72.0007 33.2303H56.0007C54.0655 33.2303 52.4535 33.8748 51.1647 35.1637C49.8758 36.4526 49.2313 38.0646 49.2313 39.9997C49.2313 41.9348 49.8758 43.5468 51.1647 44.8357C52.4535 46.1246 54.0655 46.769 56.0007 46.769ZM64.0007 106.666C75.8229 106.666 85.8895 102.511 94.2007 94.1997C102.512 85.8886 106.667 75.8219 106.667 63.9997C106.667 52.1775 102.512 42.1108 94.2007 33.7997C85.8895 25.4886 75.8229 21.333 64.0007 21.333C52.1784 21.333 42.1118 25.4886 33.8007 33.7997C25.4895 42.1108 21.334 52.1775 21.334 63.9997C21.334 75.8219 25.4895 85.8886 33.8007 94.1997C42.1118 102.511 52.1784 106.666 64.0007 106.666Z" fill="black"/>
</g>
</svg>
