<svg width="46" height="34" viewBox="0 0 46 34" fill="none" xmlns="http://www.w3.org/2000/svg">
<rect width="46" height="34" rx="10" fill="white"/>
<rect x="0.5" y="0.5" width="45" height="33" rx="9.5" stroke="#272361" stroke-opacity="0.1"/>
<path d="M28.3375 24.9723C27.3559 24.9723 26.5255 24.6328 25.8463 23.9536C25.1671 23.2744 24.8275 22.4435 24.8275 21.4609C24.8275 20.4783 25.1672 19.6474 25.8467 18.9682C26.5261 18.289 27.3561 17.9494 28.3366 17.9494C29.3171 17.9494 30.1479 18.2891 30.8289 18.9685C31.5099 19.6478 31.8505 20.4777 31.8505 21.4581C31.8505 22.4426 31.5103 23.2744 30.8301 23.9536C30.1499 24.6328 29.319 24.9723 28.3375 24.9723ZM28.3362 23.4494C28.8932 23.4494 29.3643 23.2577 29.7496 22.8744C30.1348 22.4911 30.3275 22.019 30.3275 21.4581C30.3275 20.9012 30.1348 20.431 29.7496 20.0475C29.3643 19.6641 28.8932 19.4723 28.3362 19.4723C27.7793 19.4723 27.3091 19.6641 26.9256 20.0475C26.5422 20.431 26.3505 20.9021 26.3505 21.4609C26.3505 22.0197 26.5422 22.4908 26.9256 22.8742C27.3091 23.2577 27.7793 23.4494 28.3362 23.4494ZM22.208 22.2443H15.2289C15.0085 22.2443 14.8233 22.1689 14.6733 22.0181C14.5232 21.8673 14.4482 21.6802 14.4482 21.4569C14.4482 21.2335 14.5232 21.0478 14.6733 20.8997C14.8233 20.7515 15.0085 20.6775 15.2289 20.6775H22.208C22.4279 20.6775 22.6139 20.7529 22.766 20.9037C22.9181 21.0545 22.9941 21.2416 22.9941 21.4649C22.9941 21.6882 22.9181 21.874 22.766 22.0221C22.6139 22.1702 22.4279 22.2443 22.208 22.2443ZM17.6643 16.0503C16.6827 16.0503 15.8523 15.7107 15.1731 15.0315C14.4939 14.3523 14.1543 13.5214 14.1543 12.5388C14.1543 11.5562 14.494 10.7253 15.1735 10.0461C15.8529 9.36694 16.6829 9.02734 17.6634 9.02734C18.6439 9.02734 19.4747 9.36703 20.1557 10.0464C20.8367 10.7258 21.1772 11.5557 21.1772 12.5361C21.1772 13.5205 20.8371 14.3523 20.157 15.0315C19.4768 15.7107 18.6459 16.0503 17.6643 16.0503ZM17.663 14.5273C18.22 14.5273 18.6911 14.3357 19.0764 13.9524C19.4617 13.569 19.6543 13.0969 19.6543 12.5361C19.6543 11.9791 19.4617 11.5089 19.0764 11.1255C18.6911 10.742 18.22 10.5503 17.663 10.5503C17.1061 10.5503 16.6359 10.742 16.2524 11.1255C15.869 11.5089 15.6772 11.98 15.6772 12.5388C15.6772 13.0976 15.869 13.5687 16.2524 13.9522C16.6359 14.3356 17.1061 14.5273 17.663 14.5273ZM30.7704 13.3222H23.7913C23.5709 13.3222 23.3857 13.2468 23.2356 13.096C23.0856 12.9452 23.0106 12.7581 23.0106 12.5348C23.0106 12.3115 23.0856 12.1257 23.2356 11.9776C23.3857 11.8295 23.5709 11.7554 23.7913 11.7554H30.7704C30.9903 11.7554 31.1763 11.8308 31.3284 11.9816C31.4805 12.1324 31.5565 12.3195 31.5565 12.5428C31.5565 12.7662 31.4805 12.9519 31.3284 13.1C31.1763 13.2482 30.9903 13.3222 30.7704 13.3222Z" fill="black"/>
</svg>
