<svg width="34" height="34" viewBox="0 0 34 34" fill="none" xmlns="http://www.w3.org/2000/svg">
<g opacity="0.9">
<path d="M9.22508 29.5468C8.61229 29.5468 8.08824 29.3292 7.65295 28.8939C7.21765 28.4586 7 27.9318 7 27.3135V10.8482C7 10.2182 7.22335 9.6788 7.67004 9.23015C8.11676 8.78148 8.65709 8.55714 9.29103 8.55714H12.7872V5.29107C12.7872 4.66104 13.0105 4.12168 13.4573 3.67301C13.904 3.22434 14.4443 3 15.0783 3H18.7468C19.3768 3 19.9162 3.22434 20.3648 3.67301C20.8135 4.12168 21.0379 4.66104 21.0379 5.29107V8.55714H24.534C25.164 8.55714 25.7034 8.78148 26.1521 9.23015C26.6007 9.6788 26.825 10.2182 26.825 10.8482V27.3135C26.825 27.9318 26.606 28.4586 26.168 28.8939C25.7299 29.3292 25.2045 29.5468 24.5917 29.5468C24.5917 29.954 24.4509 30.298 24.1694 30.5788C23.8878 30.8596 23.5415 31 23.1303 31C22.7214 31 22.377 30.86 22.0971 30.5801C21.8171 30.3001 21.6771 29.9557 21.6771 29.5468H12.1479C12.1479 29.954 12.0062 30.298 11.7226 30.5788C11.4391 30.8596 11.0923 31 10.6824 31C10.2724 31 9.92707 30.86 9.64629 30.5801C9.36549 30.3001 9.22508 29.9557 9.22508 29.5468ZM9.29103 27.2558H24.534V10.8482H9.29103V27.2558ZM15.0783 8.55714H18.7468V5.29107H15.0783V8.55714Z" fill="#1FFF8C"/>
<path d="M12.752 20.7598C12.752 21.7621 13.099 22.7644 13.7932 23.558C15.5248 25.5353 18.6058 25.4924 20.2828 23.4703C20.9302 22.6903 21.25 21.725 21.25 20.7598H12.75H12.752Z" fill="#1FFF8C"/>
<path d="M17.8594 19.2776V17.975C17.8594 17.7 17.951 17.468 18.1324 17.2808C18.3137 17.0936 18.5477 17 18.8363 17C19.1249 17 19.3433 17.0936 19.5305 17.2808C19.7177 17.468 19.8113 17.7 19.8113 17.975V19.2776" fill="#1FFF8C"/>
<path d="M14.041 19.2776V17.975C14.041 17.7 14.1327 17.468 14.314 17.2808C14.4954 17.0936 14.7294 17 15.018 17C15.3066 17 15.525 17.0936 15.7122 17.2808C15.8994 17.468 15.993 17.7 15.993 17.975V19.2776" fill="#1FFF8C"/>
</g>
</svg>
