<svg width="24" height="24" viewBox="0 0 24 24" fill="none" xmlns="http://www.w3.org/2000/svg">
<path d="M13.225 10.8335H2.60833C1.99622 10.8335 1.5 11.3297 1.5 11.9418V12.0585C1.5 12.6706 1.99622 13.1668 2.60833 13.1668H13.225C13.8371 13.1668 14.3333 12.6706 14.3333 12.0585V11.9418C14.3333 11.3297 13.8371 10.8335 13.225 10.8335Z" fill="#272361"/>
<path d="M21.3917 16.6665H2.60833C1.99622 16.6665 1.5 17.1627 1.5 17.7748V17.8915C1.5 18.5036 1.99622 18.9998 2.60833 18.9998H21.3917C22.0038 18.9998 22.5 18.5036 22.5 17.8915V17.7748C22.5 17.1627 22.0038 16.6665 21.3917 16.6665Z" fill="#272361"/>
<path d="M21.3917 5H2.60833C1.99622 5 1.5 5.49622 1.5 6.10833V6.225C1.5 6.83712 1.99622 7.33333 2.60833 7.33333H21.3917C22.0038 7.33333 22.5 6.83712 22.5 6.225V6.10833C22.5 5.49622 22.0038 5 21.3917 5Z" fill="#272361"/>
</svg>
