<svg width="24" height="29" viewBox="0 0 24 29" fill="none" xmlns="http://www.w3.org/2000/svg">
<path d="M6.86342 17.7725C3.95195 14.9389 3.65076 10.3017 6.29047 7.21363C9.26599 3.73267 14.5852 3.6167 17.7113 6.92456C20.3822 9.74776 20.4999 14.1946 17.9831 17.1563C17.0345 18.271 15.8471 19.0396 14.5679 19.4654L17.9537 22.7611C18.2237 22.4634 18.4989 22.1639 18.769 21.8714C21.2685 19.1659 23.8528 16.3669 23.8528 12.616C23.8528 6.11621 18.5647 0.828125 12.065 0.828125C5.5652 0.828125 0.275391 6.11621 0.275391 12.6177C0.275391 16.7045 2.92549 19.7562 5.64137 22.5344C8.03701 24.9837 10.7581 27.5991 12.0476 28.8281C12.7816 28.0994 13.9552 26.9293 15.0855 25.7799L6.86169 17.7742L6.86342 17.7725Z" fill="white"/>
<path d="M8.35915 12.1914C8.35915 13.0811 8.66726 13.9708 9.28349 14.6753C10.8206 16.4305 13.5555 16.3924 15.0441 14.5974C15.6188 13.9051 15.9027 13.0482 15.9027 12.1914H8.35742H8.35915Z" fill="white"/>
<path d="M12.8945 10.8763V9.71997C12.8945 9.47591 12.9759 9.26992 13.1369 9.10375C13.2978 8.93758 13.5056 8.85449 13.7617 8.85449C14.0179 8.85449 14.2118 8.93758 14.378 9.10375C14.5441 9.26992 14.6272 9.47591 14.6272 9.71997V10.8763" fill="white"/>
<path d="M9.50293 10.8763V9.71997C9.50293 9.47591 9.58428 9.26992 9.74526 9.10375C9.90624 8.93758 10.114 8.85449 10.3701 8.85449C10.6263 8.85449 10.8202 8.93758 10.9864 9.10375C11.1525 9.26992 11.2356 9.47591 11.2356 9.71997V10.8763" fill="white"/>
</svg>
