<svg width="96" height="107" viewBox="0 0 96 107" fill="none" xmlns="http://www.w3.org/2000/svg">
<g filter="url(#filter0_d_177_4815)">
<path fill-rule="evenodd" clip-rule="evenodd" d="M54.7644 75.2837C69.1888 72.1795 80 59.3523 80 44C80 26.3269 65.6731 12 48 12C30.3269 12 16 26.3269 16 44C16 59.3523 26.8112 72.1795 41.2356 75.2837L48 87L54.7644 75.2837Z" fill="white"/>
</g>
<circle cx="48" cy="44" r="28" fill="#00A651"/>
<path d="M42.4751 48.2259C39.1716 45.0108 38.8299 39.7492 41.825 36.2453C45.2012 32.2956 51.2367 32.1641 54.7837 35.9173C57.8142 39.1207 57.9478 44.1663 55.0921 47.5267C54.0158 48.7916 52.6684 49.6636 51.217 50.1468L55.0587 53.8863C55.3651 53.5485 55.6773 53.2087 55.9837 52.8768C58.8198 49.807 61.7521 46.6311 61.7521 42.3751C61.7521 35.0001 55.752 29 48.377 29C41.0021 29 35 35.0001 35 42.377C35 47.0141 38.0069 50.4767 41.0885 53.629C43.8067 56.4081 46.8942 59.3757 48.3574 60.7702C49.1901 59.9434 50.5218 58.6157 51.8043 57.3115L42.4731 48.2279L42.4751 48.2259Z" fill="white"/>
<path d="M44.1729 41.894C44.1729 42.9036 44.5225 43.9131 45.2217 44.7124C46.9657 46.704 50.0689 46.6608 51.758 44.6241C52.41 43.8384 52.7321 42.8662 52.7321 41.894H44.1709H44.1729Z" fill="white"/>
<path d="M49.3174 40.4014V39.0894C49.3174 38.8125 49.4097 38.5788 49.5923 38.3902C49.775 38.2017 50.0107 38.1074 50.3014 38.1074C50.592 38.1074 50.812 38.2017 51.0006 38.3902C51.1891 38.5788 51.2834 38.8125 51.2834 39.0894V40.4014" fill="white"/>
<path d="M45.4717 40.4014V39.0894C45.4717 38.8125 45.564 38.5788 45.7466 38.3902C45.9293 38.2017 46.165 38.1074 46.4557 38.1074C46.7463 38.1074 46.9663 38.2017 47.1549 38.3902C47.3434 38.5788 47.4377 38.8125 47.4377 39.0894V40.4014" fill="white"/>
<g filter="url(#filter1_f_177_4815)">
<rect x="42" y="90" width="11" height="5" rx="2.5" fill="#00A651"/>
</g>
<defs>
<filter id="filter0_d_177_4815" x="0" y="0" width="96" height="107" filterUnits="userSpaceOnUse" color-interpolation-filters="sRGB">
<feFlood flood-opacity="0" result="BackgroundImageFix"/>
<feColorMatrix in="SourceAlpha" type="matrix" values="0 0 0 0 0 0 0 0 0 0 0 0 0 0 0 0 0 0 127 0" result="hardAlpha"/>
<feOffset dy="4"/>
<feGaussianBlur stdDeviation="8"/>
<feComposite in2="hardAlpha" operator="out"/>
<feColorMatrix type="matrix" values="0 0 0 0 0 0 0 0 0 0 0 0 0 0 0 0 0 0 0.16 0"/>
<feBlend mode="normal" in2="BackgroundImageFix" result="effect1_dropShadow_177_4815"/>
<feBlend mode="normal" in="SourceGraphic" in2="effect1_dropShadow_177_4815" result="shape"/>
</filter>
<filter id="filter1_f_177_4815" x="38" y="86" width="19" height="13" filterUnits="userSpaceOnUse" color-interpolation-filters="sRGB">
<feFlood flood-opacity="0" result="BackgroundImageFix"/>
<feBlend mode="normal" in="SourceGraphic" in2="BackgroundImageFix" result="shape"/>
<feGaussianBlur stdDeviation="2" result="effect1_foregroundBlur_177_4815"/>
</filter>
</defs>
</svg>
