<svg width="80" height="80" viewBox="0 0 80 80" fill="none" xmlns="http://www.w3.org/2000/svg">
<g clip-path="url(#clip0_251_5603)">
<path d="M36.4988 43.5512L31.0888 38.1921C30.6271 37.7304 30.0554 37.4943 29.3738 37.4837C28.6921 37.4732 28.0926 37.7262 27.5754 38.2429C27.0926 38.7262 26.8513 39.3118 26.8513 39.9996C26.8513 40.6873 27.0926 41.2729 27.5754 41.7562L34.3896 48.5704C34.9924 49.1726 35.6954 49.4737 36.4988 49.4737C37.3021 49.4737 38.0051 49.1726 38.6079 48.5704L52.4221 34.7562C52.9176 34.2601 53.1621 33.6798 53.1554 33.0154C53.1493 32.351 52.9049 31.7601 52.4221 31.2429C51.9049 30.7262 51.3107 30.4593 50.6396 30.4421C49.969 30.4248 49.3751 30.6748 48.8579 31.1921L36.4988 43.5512ZM28.0313 70.6087L23.4221 62.8587L14.7038 60.9862C13.956 60.8412 13.3588 60.4482 12.9121 59.8071C12.4654 59.166 12.2871 58.4715 12.3771 57.7237L13.2296 48.7562L7.30042 41.9737C6.78764 41.4271 6.53125 40.769 6.53125 39.9996C6.53125 39.2301 6.78764 38.5721 7.30042 38.0254L13.2296 31.2429L12.3771 22.2754C12.2871 21.5276 12.4654 20.8332 12.9121 20.1921C13.3588 19.551 13.956 19.1579 14.7038 19.0129L23.4221 17.1404L28.0313 9.3904C28.4329 8.73262 28.9799 8.28401 29.6721 8.04456C30.3643 7.80512 31.0674 7.84151 31.7813 8.15373L39.9988 11.6279L48.2163 8.15373C48.9301 7.84151 49.6332 7.80512 50.3254 8.04456C51.0176 8.28401 51.5646 8.73262 51.9663 9.3904L56.5754 17.1404L65.2938 19.0129C66.0415 19.1579 66.6388 19.551 67.0854 20.1921C67.5321 20.8332 67.7104 21.5276 67.6204 22.2754L66.7679 31.2429L72.6971 38.0254C73.2099 38.5721 73.4663 39.2301 73.4663 39.9996C73.4663 40.769 73.2099 41.4271 72.6971 41.9737L66.7679 48.7562L67.6204 57.7237C67.7104 58.4715 67.5321 59.166 67.0854 59.8071C66.6388 60.4482 66.0415 60.8412 65.2938 60.9862L56.5754 62.8587L51.9663 70.6087C51.5646 71.2665 51.0176 71.7151 50.3254 71.9546C49.6332 72.194 48.9301 72.1576 48.2163 71.8454L39.9988 68.3712L31.7813 71.8454C31.0674 72.1576 30.3643 72.194 29.6721 71.9546C28.9799 71.7151 28.4329 71.2665 28.0313 70.6087Z" fill="white"/>
<path d="M16 40L40 55.0571L64 40V108H16V40Z" fill="url(#paint0_linear_251_5603)"/>
</g>
<defs>
<linearGradient id="paint0_linear_251_5603" x1="40" y1="40" x2="40" y2="74" gradientUnits="userSpaceOnUse">
<stop stop-color="white"/>
<stop offset="1" stop-color="white" stop-opacity="0"/>
</linearGradient>
<clipPath id="clip0_251_5603">
<rect width="80" height="80" fill="white"/>
</clipPath>
</defs>
</svg>
